<svg xmlns:inkscape="http://www.inkscape.org/namespaces/inkscape" xmlns:rdf="http://www.w3.org/1999/02/22-rdf-syntax-ns#" xmlns="http://www.w3.org/2000/svg" xmlns:dc="http://purl.org/dc/elements/1.1/" xmlns:ns1="http://sozi.baierouge.fr" xmlns:cc="http://web.resource.org/cc/" xmlns:xlink="http://www.w3.org/1999/xlink" xmlns:sodipodi="http://sodipodi.sourceforge.net/DTD/sodipodi-0.dtd" id="Layer_1" enable-background="new 0 0 100 100" xml:space="preserve" viewBox="0 0 100 100" version="1.1" y="0px" x="0px" style="&#10;    width: 50px;&#10;    height: 50px;&#10;">
<path d="m65.914 88.516h-13.519l12.395-0.896-7.135-49.309h2.864c1.793 0 3.242-1.452 3.242-3.243 0-1.79-1.449-3.242-3.242-3.242h-14.36s9.016-0.725 9.469-0.803 1.068-0.359 1.287-0.861l7.337-20.907-12.177 8.267 3.06-3.38-4.205-4.661c0.828-0.36 1.408-1.183 1.408-2.144 0-1.291-1.047-2.337-2.338-2.337s-2.338 1.046-2.338 2.337c0 0.961 0.581 1.784 1.409 2.144l-4.544 4.544 3.398 3.524-12.177-8.294 7.939 22.571h-4.207c-1.792 0-3.244 1.452-3.244 3.242 0 1.792 1.452 3.243 3.244 3.243h3.088l-7.543 50.206h-0.945c-1.79 0-3.242 1.452-3.242 3.242s1.452 3.242 3.242 3.242h31.831c1.79 0 3.245-1.452 3.245-3.242 0.003-1.791-1.452-3.243-3.242-3.243z"/>
<metadata><rdf:RDF><cc:Work><dc:format>image/svg+xml</dc:format><dc:type rdf:resource="http://purl.org/dc/dcmitype/StillImage"/><cc:license rdf:resource="http://creativecommons.org/licenses/publicdomain/"/><dc:publisher><cc:Agent rdf:about="http://openclipart.org/"><dc:title>Openclipart</dc:title></cc:Agent></dc:publisher></cc:Work><cc:License rdf:about="http://creativecommons.org/licenses/publicdomain/"><cc:permits rdf:resource="http://creativecommons.org/ns#Reproduction"/><cc:permits rdf:resource="http://creativecommons.org/ns#Distribution"/><cc:permits rdf:resource="http://creativecommons.org/ns#DerivativeWorks"/></cc:License></rdf:RDF></metadata></svg>
